/* XPM */
static char * logo_xpm[] = {
"20 19 96 2",
"  	c None",
". 	c #FFFFFF",
"+ 	c #FDFDFC",
"@ 	c #ADACAA",
"# 	c #474447",
"$ 	c #3A373A",
"% 	c #423F41",
"& 	c #A2A19E",
"* 	c #D0D0CC",
"= 	c #A3A29E",
"- 	c #C3C2BC",
"; 	c #92908D",
"> 	c #353336",
", 	c #3B393B",
"' 	c #979593",
") 	c #A3A09F",
"! 	c #CFCFC9",
"~ 	c #FAFAF9",
"{ 	c #8F8D8C",
"] 	c #353134",
"^ 	c #424041",
"/ 	c #B4B3AE",
"( 	c #C1BFBC",
"_ 	c #827F7D",
": 	c #282528",
"< 	c #5D5B5B",
"[ 	c #C7C7C2",
"} 	c #D0D0CA",
"| 	c #5B595A",
"1 	c #232024",
"2 	c #777473",
"3 	c #AFAEA9",
"4 	c #383637",
"5 	c #2D2A2D",
"6 	c #94928F",
"7 	c #767472",
"8 	c #1D1A1E",
"9 	c #3A383A",
"0 	c #B9B8B2",
"a 	c #BDBCBA",
"b 	c #BCBBB6",
"c 	c #312F31",
"d 	c #1B181C",
"e 	c #6D6C6A",
"f 	c #F1F0ED",
"g 	c #AFAEAC",
"h 	c #535052",
"i 	c #706F6D",
"j 	c #2A272A",
"k 	c #706F6E",
"l 	c #686666",
"m 	c #C9C8C2",
"n 	c #5E5B5D",
"o 	c #181519",
"p 	c #3F3D3E",
"q 	c #A1A09C",
"r 	c #615F5F",
"s 	c #7B7A78",
"t 	c #A19F9C",
"u 	c #272428",
"v 	c #4B494A",
"w 	c #B6B6B1",
"x 	c #BBBAB5",
"y 	c #403D40",
"z 	c #888784",
"A 	c #D4D3CC",
"B 	c #5E5C5C",
"C 	c #201D21",
"D 	c #504E4F",
"E 	c #6E6C6C",
"F 	c #575455",
"G 	c #242124",
"H 	c #969491",
"I 	c #AEADA8",
"J 	c #161317",
"K 	c #1E1B1F",
"L 	c #B5B4B0",
"M 	c #878583",
"N 	c #1F1C20",
"O 	c #19161A",
"P 	c #151216",
"Q 	c #4C4A4A",
"R 	c #DDDDD8",
"S 	c #CCCBC5",
"T 	c #5D5B5A",
"U 	c #1A171B",
"V 	c #100D11",
"W 	c #767473",
"X 	c #B5B3AE",
"Y 	c #575655",
"Z 	c #2B292C",
"` 	c #3E3A3C",
" .	c #AEADA9",
"..	c #B2B1AE",
"+.	c #716E6F",
"@.	c #989696",
". . . . . . . . . . . . . . . . . . . . ",
". + @ # $ % & . . . . . . . . . . . . . ",
". * = - ; > , ' . . . . . . . . . . . . ",
". ) ! . ~ { ] ^ / . . . . . . . . . . . ",
". ( . . . . _ : < [ . . . . . . . . . . ",
". . . . . . } | 1 2 . . . . . . . . . . ",
". . . . . . . 3 4 5 6 . . . . . . . . . ",
". . . . . . . . 7 8 9 0 . . . . . + a . ",
". . . . . . . . b c d e f . . . . g h . ",
". . . . . . . . . i : j ; . . . . k l . ",
". . . . . . . . . m n o p q . . . r s . ",
". . . . . . . . . . t u o v w . x y z . ",
". . . . . . . . . . A B o C D E F G H . ",
". . . . . . . . . . . I , J d K d : L . ",
". . . . . . . . . . . . M N J O P Q R . ",
". . . . . . . . . . . . S T U J V W . . ",
". . . . . . . . . . . . . X Y Z `  .. . ",
". . . . . . . . . . . . . . ..+.@.. . . ",
". . . . . . . . . . . . . . . . . . . . "};
